<?xml version="1.0" encoding="UTF-8"?>
<svg id="Layer_1" data-name="Layer 1" xmlns="http://www.w3.org/2000/svg" viewBox="0 0 312.12 368.27">
  <defs>
    <style>
      .cls-1 {
        fill: #ebb780;
      }

      .cls-1, .cls-2, .cls-3, .cls-4, .cls-5, .cls-6 {
        stroke-width: 0px;
      }

      .cls-2 {
        fill: #fdf5e1;
      }

      .cls-3 {
        fill: #b46c54;
      }

      .cls-4 {
        fill: #b8bdb1;
      }

      .cls-5 {
        fill: #100207;
      }

      .cls-6 {
        fill: #e3ab76;
      }
    </style>
  </defs>
  <path class="cls-5" d="m28.88,346.87c-16.13-3.8-25.16-14.33-28.28-30.21-1.1-5.61-.36-11.36-.36-17.04,0-34.09.05-68.18.05-102.27,0-39.26-.04-78.52-.09-117.78-.02-14.01-.34-28.03-.13-42.03C.27,23.47,7.02,12.99,18.81,5.61,25.43,1.46,32.74-.01,40.45,0c21.1.03,42.2.05,63.3.06,22.44,0,44.89,0,67.33,0,23.39,0,46.79-.07,70.18,0,16.17.04,31.13,11.13,35.64,26.7,1.11,3.84,2.51,5.74,6.71,6.88,17.51,4.77,28.35,19.64,28.38,37.8,0,1.19.08,2.37.12,3.56-.06,1.1-.16,2.2-.16,3.31-.03,40.87-.06,81.74-.06,122.61,0,33.31.01,66.62.08,99.94.01,7.88-.72,15.54-4.03,22.88-4.31,9.55-11.68,16.02-20.77,20.39-4.88,2.34-10.51,2.84-16.11,2.82-33.41-.11-66.82-.12-100.23-.02-30.27.09-60.55-.41-90.82.22-1.71.04-2.18.41-2.12,2.12.14,3.9.04,7.82.04,11.73,0,3.1-1.36,5.37-4.18,6.69-2.76,1.29-5.13.35-7.29-1.43-1.63-1.34-3.24-2.72-4.85-4.08q-2.47-2.43-5.13-.16c-1.8,1.53-3.56,3.13-5.47,4.51-4.99,3.61-10.1,1.24-10.7-4.89-.05-.5-.14-1-.21-1.5.57-3.87,0-7.75.19-11.62.06-1.19-.55-1.32-1.54-1.34-3.28-.04-6.56-.19-9.85-.29Zm10.79-28.16c.04-.67.12-1.34.1-2.01-.13-4.99-.13-5.11-5.09-5.27-3.79-.13-7.41.58-10.34,3.32-5.99,5.6-2.91,11.64,1.84,14.64,3.9,2.47,8.4,1.46,12.65,1.83.89.08,1.17-.56,1.09-1.34-.2-2.02.27-4.06-.25-6.06,0-1.7,0-3.4,0-5.1Zm243.57-198.28c1.88.91,3.75,1.82,5.63,2.73,2.61,1.79,5.05,3.81,7.7,6.22,0-4.66,0-8.8,0-12.94,0-14.29,0-28.58,0-42.86,0-7.35-2.18-13.84-7.62-19.01-1.58-2.02-3.37-3.8-5.52-5.21-.62-2.67-2.45-4.07-5.16-5.05,0,.65,0,1.04,0,1.43-.03,22.85-.07,45.7-.07,68.55,0,4.84.08,4.84,4.8,6.15.08.02.17,0,.25-.01Zm-5.33,161.71c-1.42,3.41-2.47,7.04-4.33,10.19-6.68,11.36-16.18,18.99-29.83,19.18-23.28.33-46.56.11-69.84.1-29.76,0-59.52-.05-89.28-.04-6.95,0-6.95.07-6.58,7.19.01,1.67.03,3.34.04,5.01-.05,1.78-.02,3.57-.18,5.34-.15,1.56.4,2.07,1.96,2.07,13.56-.08,27.13-.12,40.69-.12,37.27-.01,74.54.06,111.81-.03,10.53-.03,21.06.45,31.58-.15,2.46.04,4.92.09,7.38.12,7.19.1,12.99-2.92,17.71-8.11,5.55-6.1,7.6-13.44,7.54-21.58-.1-12.67.08-25.34-.01-38-.06-8.07.29-16.14-.21-24.21.48-2.5.16-4.89-.96-7.17-2.91-5.91-6.86-10.92-12.52-14.43-1.4-.87-2.8-1.81-4.52-2v8.78c-.45,19.29.3,38.59-.45,57.87ZM231.2,15.86c-1.98-.8-4.01-.15-6.01-.15-14.66-.02-29.31.02-43.97,0-16.24-.03-32.48-.17-48.73-.17-17.32,0-34.65.12-51.97.17-13.98.04-27.96-.15-41.93.15-12.37.26-23.24,10.16-23.4,22.97-.22,17.92-.18,35.84-.18,53.76,0,23.16.11,46.32.15,69.48.02,11.95-.05,23.91-.05,35.86,0,18.08.02,36.15.07,54.23.02,9.19.11,18.38.17,27.58-.04,4.13-.09,8.27-.13,12.4v10.8c5.97-5.63,12.93-6.71,20.07-6.55,8.64.19,17.28.19,25.92.21,17.3.03,34.6-.14,51.89-.17,8.63-.01,17.26.14,25.9.16,15.78.03,31.56,0,47.34.01,16.99,0,33.99-.08,50.98.07,14.92.14,25.52-13.19,25.52-25.87,0-18.97-.04-37.94.09-56.91.03-4.9-.45-9.78-.17-14.7.09-1.6.47-1.58,1.53-1.57,1.45.01,2.89.05,4.34.06,10.66.05,19.77,3.65,26.99,11.68.53.58.87,1.45,1.95,1.69,0-1.16,0-2.24,0-3.32.05-18.8.09-37.6.14-56.4,0-1.46.03-2.92-.83-4.19-2.61-3.86-5.75-7.13-10.01-9.2-2.29-1.65-4.79-2.86-7.51-3.66-5.18-1.52-10.52-1.53-15.84-1.66-.91-1-.64-2.24-.64-3.4.02-21.23.06-42.46.05-63.69,0-2.33-.67-4.72-.35-6.99.91-6.46-.24-12.84-.29-19.26.65-7.69-2.52-13.72-8.28-18.5-6.72-5.58-14.69-5.66-22.81-4.91ZM66.08,330.06h-.48c0-5.44-.05-10.87.03-16.31.02-1.54-.38-2.08-2.01-2.02-3.48.12-6.96.05-10.44-.02-1.17-.02-1.7.23-1.62,1.54.13,2.25.04,4.5-.01,6.76-.2,8.65-.05,17.32,0,25.98,0,.64-.39,1.53.34,1.87.72.34,1.15-.52,1.64-.93q5.31-4.47,10.44.16c.49.45.95,1.22,1.65.89.71-.33.43-1.21.43-1.86.02-5.35.01-10.7.01-16.06Z"/>
  <path class="cls-6" d="m254.17,216.16c.09-5.65.02-11.31.02-16.96-.34-.18-.34-.37.01-.55v-.99c0-2.23,0-4.46,0-6.69-.24.33-.48.66-.91,1.25-1.04-3.17-1.53-6.21-1.18-9.38h2.06c.02-8.4.04-16.79.04-25.19.01-32.57.05-65.14,0-97.7-.01-6.45.31-12.91-.29-19.35-.9-.13-.61-.87-.74-1.4-1.89-7.76-8.51-13.43-15-14.17-3.76-.43-7.6-.25-11.41-.22-8.05.07-16.1.08-24.15-.14-9.95-.28-19.91-.11-29.86-.12-16.19,0-32.38-.26-48.56.09-8.56.19-17.11,0-25.66.28-9.05.29-18.09-.39-27.14-.04-10.19.39-20.38-.49-30.58.02-9.4.47-18.3,9.89-18.07,19.84.17,7.55,0,15.11.05,22.67.09,13.18.28,26.36.32,39.54.02,6.49-.37,12.98-.23,19.47.08,3.92-.08,7.84.02,11.76.11,4.18.36,8.38.15,12.56-.5,10.37-.23,20.73-.11,31.1,1.47-.25,2.35.71,3.05,1.71.45.65-.54.87-.83,1.31-1.21,1.89-1.32-.28-1.96-.52-.77,1.68-.35,3.43-.29,5.16,0,3.57,0,7.15-.01,10.73.05.1.11.2.13.31.01.04-.07.1-.11.15-.02,5.29-.05,10.59-.08,15.88.43.33.43.65,0,.98-.03.69-.06,1.38-.09,2.07.33.04.74.06.77.47.04.43-.36.49-.69.55,0,.51,0,1.03-.01,1.54.06.11.13.22.16.34.01.04-.1.1-.15.15.01,5.12.03,10.23.04,15.35,1.65.84,1.38,1.69.02,2.55.01,1.36.01,2.73.02,4.1.1.18.21.36.31.54h-.04c.48.16.34.31-.01.45-.67,3.23-.32,6.49-.24,9.74.03.11.08.22.09.33,0,.04-.08.09-.13.13,0,3.08-.01,6.16-.01,9.25.11.67,2.35,1.29.05,2.03-.44,4.26-2.15,7.94-5.06,11.07-.71.76-1.48,1.39-2.56,1.52-.04,4.13-.09,8.27-.13,12.4,2.37-1.08,4.1-3.15,6.71-3.96,4.7-1.47,9.42-1.4,14.29-1.44,6.7-.04,13.41-.16,20.11-.17,49.93-.03,99.86-.02,149.78-.02,10.28,0,20.57.24,30.84-.07,8.92-.28,16.21-7.8,16.75-16.52,1.09-17.92.23-35.86.49-53.79ZM34.06,50.06c-3.7-.06-6.59-2.85-6.59-6.35.01-3.35,3.88-7.04,7.24-6.9,3.27.14,6.05,3.26,5.97,6.72-.09,3.82-2.9,6.6-6.62,6.53Zm90.75,96.33c.36-.46.46.01.64.18.74.05,1.8-.07,1.77.94-.04,1.16-1.14.37-1.69.59-.58.23-.93.1-.88-.35.04-.41.51-.79.8-1.18-.22-.06-.43-.12-.64-.18Zm-76.49,51.26c.05-.32.05-.69.47-.75.08-.01.29.2.27.28-.06.42-.42.42-.74.47Zm27.17,19.17c-.13-.06-.34-.09-.38-.18-.03-.1.1-.26.16-.4.13.06.26.12.4.18-.06.13-.12.26-.18.4Zm10.43-6.51l.08-.09.11.2-.19-.11Zm24.72,2.67c-.04.07-.08.13-.12.2.03-.07.07-.14.1-.21.04-.07.08-.13.12-.2-.03.07-.07.14-.1.21Zm-7.5-31.97c-10.3,5.56-20.82,6.67-32.07,2.89-9.45-3.18-16.01-9.46-21.31-17.45-.52-.77-.77-1.78-1.45-2.52-.39-.16-.77-.35-1.17-.48-2.05-.68-2.1-1.57-.3-2.68.01-.14,0-.28-.06-.41-1.36-.26-.92-1.32-.97-2.17.17-2.76-1.35-5.29-1.08-8.07-.34-.31-.39-.64-.07-1,0-1.7.01-3.4.01-5.11-.42-.52-.44-1.02.06-1.5,1.7-16.19,14.39-31.66,30.04-34.93,18.82-3.94,34.77,2.85,44.08,20.4,1.85,3.48,3.11,7.15,4.1,10.94.44.38.42.86.29,1.36l-.05.19c.39.09.55.23.08.47.03.18.06.35.1.52.45.65,1.28,1.25.2,2.05,0,2.05-.01,4.1-.02,6.15.51.72.56,1.39-.16,2.01-.13.69-.25,1.38-.38,2.07.41,1.31,1.18,2.7-.71,3.55l-.11.09.05.14c.42,1.6.04,2.92-1.41,3.85-.37.26-.45.64-.42,1.06.66.77.05.88-.52,1.02v.1c-.19,1.32.04,2.87-1.83,3.23v.04c-.11.23-.21.45-.32.68-4.03,5.4-8.56,10.25-14.6,13.51Zm72.6,27.24c-.2.35-.33.75-.49,1.12-1.1.57-1.75,1.58-2.48,2.51-3.53,2.11-6.67,4.82-10.64,6.29-7.57,2.8-15.2,4.02-23.16,2.04-.23-.06-.5.03-.76.04-7.58-1.13-13.84-4.92-19.41-9.94-3.23-2.91-3.84-6.82-1.9-10.14,1.7-2.92,4.84-4.01,8.13-2.81,1.37.5,2.56,1.31,3.72,2.18,10.45,7.89,24.79,7.98,35.36.24.48-.36.96-.71,1.45-1.04,3.61-2.49,6.32-2.62,8.81-.41,2.9,2.57,3.4,6.25,1.37,9.92Zm11.49,20.42s-.1-.09-.15-.13c.06-.04.12-.1.18-.09.06,0,.11.08.16.12-.06.03-.12.07-.19.1Zm.86-30.61c-.66.05-.77-.43-.84-.92.46.07.99.05,1.13.66.01.07-.19.26-.29.26Zm29.37.48c-.07-.03-.15-.04-.19-.08-.02-.02.03-.11.05-.17.07.03.13.05.2.07-.02.06-.04.12-.06.18Zm5.78-3.27c.02-.12.03-.23.04-.35.03.07.1.13.09.19,0,.06-.08.11-.13.16Zm12.96,26.2c-.06.2-.24.35-.49.67-.1-.37-.25-.61-.19-.74.08-.17.34-.24.53-.35.05.14.19.31.15.42Zm.64-1.6c-.15-.16-.4-.3-.42-.47-.03-.18.17-.38.34-.72.21.29.43.47.43.64-.01.18-.22.36-.35.55Zm3.13-27.64l-.11-.2.2.11-.09.09Zm2.45-3.77c-.17.27-.34.28-.51,0h0c.08-.22.17-.43.26-.64.08.21.16.41.25.63h0Z"/>
  <path class="cls-3" d="m15.2,292.13c2.37-1.08,4.1-3.15,6.71-3.96,4.71-1.47,9.42-1.4,14.29-1.44,6.7-.05,13.41-.17,20.12-.17,49.93-.03,99.85-.02,149.78-.02,10.28,0,20.57.24,30.84-.07,8.92-.27,16.21-7.8,16.75-16.52,1.1-17.92.23-35.86.5-53.79.08-5.65.02-11.3.02-16.96,0-.18,0-.36,0-.55,0-.33,0-.66,0-.99,0-2.23,0-4.46.01-6.69,0-2.71-.02-5.42-.03-8.13.01-8.4.04-16.79.04-25.19.01-32.57.04-65.14,0-97.71,0-6.45.31-12.91-.29-19.35.02-.74.04-1.47.06-2.21.9-.42,1.79-.87,2.71-1.25,1.41-.59,2.85-.95,4.39-.52,1.49.42.1,2.09,1.2,2.66.05,6.42,1.2,12.8.29,19.26-.32,2.27.35,4.66.35,6.99,0,21.23-.03,42.46-.05,63.69,0,1.16-.27,2.4.64,3.4-1.24,1.41-.66,3.11-.6,4.65.23,5.57.22,11.16.22,16.7,0,7.17.02,14.38-.33,21.55-.19,3.82,1.11,7.56.23,11.39-.27,1.16.87,1.03,1.59,1.02,6.91-.08,13.69.64,20.16,3.28,1.1.45,1.64.14,1.6-1.05-.08-2.8.36-5.59.39-8.37.14-14.62.08-29.24.09-43.86,4.25,2.07,7.4,5.35,10.01,9.2.86,1.27.83,2.73.83,4.19-.05,18.8-.1,37.6-.14,56.4,0,1.08,0,2.15,0,3.32-1.08-.23-1.42-1.1-1.95-1.69-7.22-8.02-16.33-11.62-26.99-11.68-1.45,0-2.89-.05-4.34-.06-1.06,0-1.43-.03-1.53,1.57-.28,4.92.2,9.8.17,14.7-.13,18.97-.08,37.94-.09,56.91,0,12.68-10.6,26.01-25.52,25.87-16.99-.16-33.99-.06-50.98-.07-15.78,0-31.56.02-47.34-.01-8.63-.02-17.26-.17-25.9-.16-17.3.03-34.6.19-51.89.17-8.64-.01-17.28-.02-25.92-.21-7.14-.16-14.1.93-20.07,6.55v-10.8Z"/>
  <path class="cls-3" d="m253.99,38.39c-.02.74-.04,1.47-.06,2.21-.89-.12-.6-.87-.73-1.39-1.89-7.76-8.51-13.43-15-14.17-3.76-.43-7.61-.25-11.41-.22-8.05.07-16.1.07-24.15-.15-9.95-.27-19.91-.11-29.86-.12-16.19-.01-32.38-.25-48.56.09-8.56.18-17.11,0-25.66.28-9.05.29-18.08-.39-27.14-.04-10.19.39-20.38-.48-30.58.02-9.4.47-18.3,9.88-18.07,19.84.17,7.55,0,15.11.05,22.67.09,13.18.28,26.36.32,39.54.02,6.49-.37,12.99-.23,19.47.08,3.92-.08,7.84.02,11.76.11,4.19.35,8.39.15,12.56-.5,10.37-.23,20.73-.12,31.1-.35.88.3,1.66.27,2.5-.78,1.68-.35,3.43-.29,5.16,0,3.58,0,7.15,0,10.73-.08.16-.08.31.02.46-.03,5.29-.05,10.59-.08,15.88,0,.33,0,.66,0,.98-.03.69-.06,1.38-.09,2.06.03.34.05.68.08,1.03,0,.51,0,1.02-.01,1.53-.06.16-.06.33,0,.49.02,5.12.03,10.23.04,15.35,0,.85,0,1.7.01,2.55,0,1.37.02,2.74.03,4.1.1.18.2.36.3.54,0,0-.03,0-.03,0-.03.15-.04.3-.01.45-.67,3.23-.32,6.49-.24,9.74-.11.15-.12.3-.03.46,0,3.08-.01,6.16-.02,9.24.02.68.04,1.35.06,2.03-.44,4.26-2.15,7.95-5.06,11.08-.7.76-1.48,1.39-2.55,1.52-.06-9.19-.14-18.39-.17-27.58-.04-18.08-.06-36.15-.07-54.23,0-11.95.07-23.91.05-35.86-.03-23.16-.14-46.32-.15-69.48,0-17.92-.04-35.84.18-53.76.15-12.81,11.03-22.71,23.4-22.97,13.97-.3,27.95-.11,41.93-.15,17.32-.05,34.65-.17,51.97-.17,16.24,0,32.48.13,48.73.17,14.66.03,29.31-.02,43.97,0,2,0,4.03-.65,6.01.15.09,1.02.94,1.29,1.64,1.77,2.54,1.72,5.38,2.86,8.06,4.29,2.83,1.51,5.55,3.15,7.87,5.46,3.09,3.08,3.99,7.1,5.21,11.01Z"/>
  <path class="cls-4" d="m263.95,330.87c-10.52.6-21.05.12-31.58.15-37.27.09-74.54.02-111.81.03-13.56,0-27.13.05-40.69.12-1.56,0-2.11-.51-1.96-2.07.17-1.77.13-3.56.18-5.34,54.85.02,109.7.06,164.55.02,5.94,0,11.94.67,17.81-.55,12.31-2.57,22.85-11.77,22.73-27.24-.18-21.95-.03-43.9-.03-65.85,0-3.92-.8-4.9-4.8-5.88v-8.78c1.72.18,3.12,1.13,4.52,2,5.67,3.51,9.61,8.52,12.52,14.43,1.13,2.29,1.44,4.67.96,7.17-2.45-2-3.84-5.08-6.83-6.95-.17,2.77-.46,5.28-.47,7.8-.05,20.43-.16,40.86,0,61.29.08,9.72-4.59,16.75-11.54,22.76-3.95,3.42-8.89,4.9-13.57,6.88Z"/>
  <path class="cls-2" d="m278.36,224.27c3.99.98,4.8,1.96,4.8,5.88,0,21.95-.16,43.9.03,65.85.13,15.47-10.42,24.67-22.73,27.24-5.87,1.22-11.87.55-17.81.55-54.85.04-109.7,0-164.55-.02-.01-1.67-.03-3.34-.04-5.01,55.02-.01,110.05-.04,165.07-.01,6.77,0,13.11-1.34,19.05-4.69,13.54-7.64,17.45-18.71,15.74-31.91.75-19.29,0-38.58.45-57.87Z"/>
  <path class="cls-4" d="m277.91,282.14c1.71,13.2-2.21,24.28-15.74,31.91-5.94,3.35-12.28,4.7-19.05,4.69-55.02-.03-110.05,0-165.07.01-.38-7.12-.38-7.19,6.58-7.19,29.76,0,59.52.04,89.28.04,23.28,0,46.56.23,69.84-.1,13.65-.19,23.15-7.82,29.83-19.18,1.85-3.16,2.91-6.78,4.33-10.19Z"/>
  <path class="cls-6" d="m286.86,137.92c-.01,14.62.05,29.24-.09,43.86-.03,2.78-.47,5.57-.39,8.37.04,1.19-.51,1.5-1.6,1.05-6.46-2.65-13.25-3.36-20.16-3.28-.72,0-1.85.14-1.59-1.02.88-3.83-.42-7.58-.23-11.39.35-7.17.32-14.38.33-21.55,0-5.54,0-11.14-.22-16.7-.06-1.54-.64-3.24.6-4.65,5.32.13,10.66.13,15.84,1.66,2.72.8,5.22,2.01,7.51,3.66Z"/>
  <path class="cls-2" d="m263.95,330.87c4.68-1.98,9.62-3.46,13.57-6.88,6.95-6.01,11.62-13.04,11.54-22.76-.17-20.43-.05-40.86,0-61.29,0-2.51.29-5.03.47-7.8,3,1.87,4.38,4.95,6.83,6.95.5,8.07.15,16.14.21,24.21.09,12.67-.08,25.34.01,38,.06,8.14-1.99,15.49-7.54,21.58-4.72,5.19-10.52,8.22-17.71,8.11-2.46-.04-4.92-.08-7.38-.12Z"/>
  <path class="cls-2" d="m288.93,54.56c5.44,5.17,7.61,11.66,7.62,19.01,0,14.29,0,28.58,0,42.86,0,4.14,0,8.29,0,12.94-2.65-2.41-5.09-4.43-7.7-6.22.02-22.87.05-45.73.07-68.6Z"/>
  <path class="cls-3" d="m66.08,330.06c0,5.35,0,10.7-.01,16.06,0,.65.28,1.54-.43,1.86-.7.32-1.16-.45-1.65-.89q-5.14-4.64-10.44-.16c-.49.41-.92,1.27-1.64.93-.72-.34-.33-1.23-.34-1.87-.05-8.66-.21-17.32,0-25.98.05-2.26.15-4.51.01-6.76-.08-1.31.46-1.57,1.62-1.54,3.48.07,6.96.14,10.44.02,1.62-.06,2.03.48,2.01,2.02-.08,5.44-.03,10.87-.03,16.31h.48Z"/>
  <path class="cls-4" d="m288.93,54.56c-.02,22.87-.05,45.73-.07,68.6-1.88-.91-3.75-1.82-5.63-2.73-.01-23.02-.02-46.04-.03-69.05,0-.67.13-1.34.2-2.01,2.15,1.4,3.94,3.19,5.52,5.21Z"/>
  <path class="cls-2" d="m283.41,49.35c-.07.67-.2,1.34-.2,2.01,0,23.02.01,46.04.03,69.05-.09,0-.18.04-.25.01-4.72-1.31-4.8-1.32-4.8-6.15,0-22.85.04-45.7.07-68.55,0-.39,0-.78,0-1.43,2.71.97,4.54,2.38,5.16,5.05Z"/>
  <path class="cls-3" d="m253.99,38.39c-1.22-3.91-2.13-7.93-5.21-11.01-2.32-2.31-5.05-3.94-7.87-5.46-2.68-1.44-5.53-2.57-8.06-4.29-.7-.47-1.55-.75-1.64-1.77,8.12-.76,16.1-.67,22.81,4.91,5.76,4.78,8.92,10.81,8.28,18.5-1.1-.57.3-2.24-1.2-2.66-1.55-.43-2.98-.07-4.39.52-.92.39-1.81.83-2.71,1.25Z"/>
  <path class="cls-4" d="m39.66,323.81c.52,2,.06,4.05.25,6.06.08.78-.21,1.42-1.09,1.34-4.25-.37-8.74.64-12.65-1.83-4.75-3-7.83-9.04-1.84-14.64,2.93-2.74,6.56-3.45,10.34-3.32,4.96.17,4.96.28,5.09,5.27.02.67-.06,1.34-.1,2.01-4.32,0-8.63,0-12.95.03-1.93.01-2.74,1.31-2.8,2.96-.06,1.8,1.28,2.12,2.79,2.11,4.31-.02,8.63,0,12.94,0Z"/>
  <path class="cls-2" d="m39.66,323.81c-4.31,0-8.63-.02-12.94,0-1.52,0-2.86-.31-2.79-2.11.06-1.65.87-2.95,2.8-2.96,4.32-.03,8.63-.02,12.95-.03,0,1.7,0,3.4,0,5.1Z"/>
  <path class="cls-5" d="m175.26,209.37c-1.1.57-1.75,1.58-2.48,2.52-3.54,2.11-6.68,4.82-10.65,6.29-7.57,2.8-15.2,4.02-23.16,2.04-.23-.06-.5.02-.76.04-7.59-1.14-13.85-4.92-19.42-9.94-3.23-2.91-3.83-6.82-1.9-10.14,1.7-2.92,4.84-4.01,8.13-2.81,1.37.5,2.56,1.31,3.72,2.19,10.45,7.89,24.8,7.97,35.37.23.48-.35.96-.7,1.45-1.04,3.61-2.49,6.32-2.61,8.8-.41,2.9,2.58,3.4,6.25,1.37,9.92-.2.35-.32.75-.48,1.12h0Z"/>
  <path class="cls-1" d="m128.86,225.54c-.78-1.95,1.65-1.61,2.29-2.71.13-.22.7.03.76.37.05.27-.06.77-.26.87-1.04.54-1.75,1.22-1.7,2.51.01.34-.33.59-.72.41-.57-.25-.64-.71-.37-1.45Z"/>
  <path class="cls-1" d="m181.6,213.2c.01,1.57-1.42,1.37-2.11,2-.4.36-.77-.03-.86-.51-.37-1.85,1.49-1.08,2.14-1.78.41-.45.68.02.83.29Z"/>
  <path class="cls-1" d="m78.94,215.4c1.33-.45,2.27-.93,3.06.16.2.28,0,.44-.21.57-1.04.66-1.85.3-2.85-.73Z"/>
  <path class="cls-1" d="m22.91,240.57c0-.85,0-1.7-.01-2.55,1.64.84,1.38,1.69.01,2.55Z"/>
  <path class="cls-1" d="m85.61,214.51c-.91-.04-1.85-.04-2.43-1.33,1.11.2,2.16-.06,2.42,1.33,0,0,0,0,0,0Z"/>
  <path class="cls-1" d="m132.25,226.64c.99.92,1.17,1.57,1.07,2.57-.88-.58-.96-1.29-1.07-2.57Z"/>
  <path class="cls-1" d="m22.95,267.14c-.02-.68-.04-1.35-.06-2.03.11.67,2.35,1.29.06,2.03Z"/>
  <path class="cls-1" d="m236.76,218.69c.21.29.43.47.43.64,0,.18-.22.36-.34.55-.15-.15-.4-.29-.42-.47-.02-.18.17-.38.34-.72Z"/>
  <path class="cls-1" d="m188.86,227.3c-.18.28-.47.43-.79.28-.18-.08-.28-.34-.42-.52.29-.08.57-.22.86-.24.22-.01.51.09.35.48Z"/>
  <path class="cls-1" d="m235.72,222.14c-.11-.37-.26-.61-.19-.74.08-.16.34-.24.52-.35.06.14.2.32.16.42-.07.19-.24.35-.49.67Z"/>
  <path class="cls-1" d="m187.25,197.14c.46.07.99.05,1.13.66.01.07-.18.26-.29.26-.65.05-.76-.43-.83-.93h0Z"/>
  <path class="cls-1" d="m75.67,216.42c-.06.13-.12.27-.17.4-.13-.06-.34-.09-.38-.18-.04-.1.09-.26.15-.39.13.06.27.12.4.17Z"/>
  <path class="cls-1" d="m22.86,220.64c-.03-.34-.05-.68-.08-1.03.33.04.73.06.77.47.04.43-.36.49-.69.55Z"/>
  <path class="cls-1" d="m235.14,217.8c.13.06.27.12.4.17-.06.13-.09.34-.18.38-.1.04-.26-.09-.39-.15.06-.13.12-.27.17-.4Z"/>
  <path class="cls-1" d="m200.84,229.2c-.06.13-.09.34-.18.38-.1.04-.26-.09-.39-.15.06-.13.09-.34.18-.38.1-.04.26.09.4.15Z"/>
  <path class="cls-1" d="m223.28,194.92c.03.06.1.13.09.19,0,.06-.08.11-.13.16.01-.12.02-.23.03-.35Z"/>
  <path class="cls-1" d="m22.87,217.55c0-.33,0-.66,0-.98.43.33.43.66,0,.98Z"/>
  <path class="cls-1" d="m187.24,228.67c-.05-.04-.1-.09-.16-.13.06-.03.13-.1.18-.09.06,0,.11.08.16.13-.06.03-.12.07-.19.1Z"/>
  <path class="cls-1" d="m217.52,198.37c-.02.06-.04.12-.06.17-.07-.02-.14-.03-.19-.08-.02-.02.03-.11.06-.17.07.02.13.05.2.07Z"/>
  <path class="cls-1" d="m254.2,198.66c0,.18,0,.36,0,.55-.35-.18-.35-.37,0-.55Z"/>
  <path class="cls-1" d="m22.95,200.69c-.1-.15-.1-.31-.02-.46.05.11.11.21.13.32,0,.04-.07.1-.11.15Z"/>
  <path class="cls-1" d="m22.85,222.67c-.06-.16-.07-.33,0-.49.06.12.13.23.16.35,0,.03-.1.1-.15.15Z"/>
  <path class="cls-1" d="m242.42,188.46c-.17.28-.34.28-.51,0,0,0,0,0,0,0,.17,0,.34,0,.51,0h0Z"/>
  <polygon class="cls-1" points="239.87 192.03 240.07 192.14 239.98 192.23 239.87 192.03"/>
  <path class="cls-1" d="m23.24,245.21c-.1-.18-.2-.36-.3-.54.1.18.2.36.3.54Z"/>
  <path class="cls-1" d="m23.19,245.66c-.02-.15-.02-.3.01-.45.48.17.33.31-.01.45Z"/>
  <path class="cls-1" d="m22.92,255.86c-.09-.16-.08-.32.03-.46.03.11.08.22.09.33,0,.04-.08.09-.12.13Z"/>
  <path class="cls-1" d="m47.3,198.16c-.04.07-.07.13-.11.2.04-.07.07-.13.11-.2,0,0,0,0,0,0Z"/>
  <path class="cls-6" d="m252.13,182.84c.69,0,1.37,0,2.06,0,0,2.71.02,5.42.03,8.13-.24.32-.48.65-.91,1.25-1.04-3.17-1.53-6.21-1.17-9.38h0Z"/>
  <path class="cls-6" d="m22.96,181.84c1.47-.24,2.35.72,3.05,1.71.46.65-.54.87-.83,1.31-1.21,1.88-1.32-.29-1.96-.53.03-.85-.62-1.62-.27-2.5Z"/>
  <path class="cls-5" d="m123.58,143.52c0,2.05-.01,4.1-.02,6.15-.05.67-.11,1.34-.16,2.01-.13.69-.26,1.38-.39,2.07-.32,1.16-.78,2.3-.71,3.54l-.1.1s.05.13.05.13c-.79,1.17-1.12,2.51-1.4,3.86-.38.26-.45.64-.42,1.06-.23.31-.65.52-.53,1.02,0,0,0,.1,0,.1-.9.91-1.25,2.14-1.82,3.23,0,0,0,.04,0,.04-.1.23-.21.45-.31.68-4.04,5.4-8.56,10.26-14.6,13.52-10.3,5.55-20.82,6.67-32.07,2.88-9.44-3.17-16.01-9.46-21.31-17.44-.52-.78-.77-1.79-1.45-2.52,0-1.28-.27-2.44-1.47-3.16,0-.14,0-.28-.05-.41.22-.97-.45-1.53-.97-2.17.17-2.76-1.36-5.3-1.08-8.07-.03-.33-.05-.67-.08-1,0-1.7.01-3.41.02-5.11.02-.5.04-1.01.05-1.51,1.71-16.19,14.39-31.65,30.04-34.93,18.82-3.94,34.77,2.85,44.08,20.4,1.85,3.48,3.11,7.15,4.09,10.94-.07.49-.11.97.29,1.36,0,0-.05.19-.05.19-.01.06-.04.12-.03.17.03.11.07.21.11.31.03.17.06.35.09.52.07.68.14,1.37.21,2.05Zm-43.14-15.71c.08,8.76,5.43,14.44,13.97,14.17,7.14-.22,12.74-6.13,12.7-13.84-.04-7.04-6.09-12.94-13.08-12.9-7.65.04-13.66,5.59-13.59,12.58Z"/>
  <path class="cls-2" d="m34.06,50.07c-3.7-.07-6.59-2.86-6.59-6.36,0-3.35,3.87-7.04,7.23-6.89,3.27.14,6.05,3.26,5.97,6.71-.09,3.82-2.9,6.6-6.62,6.54Z"/>
  <path class="cls-6" d="m252.13,182.84c-1.8-.23-3.7-.28-3.2-3.03.1-.58-.34-1.51-1.15-1.42-1.08.12-.56.91-.42,1.56.79,3.68-2.1,6.54-5.79,5.76-.16-.04-.33-.09-.48-.17-.95-.46-2.66.49-2.89-.75-.21-1.13,1.53-.94,2.37-1.42.4-.23.89-.57.36-.86-1.83-.98-.25-1.07.31-1.45.75-.51,1.32-2.05,2.41-.85.84.92.19,1.83-.87,2.41-.41.23-.31.75-.04,1.13.46.66,1.15.65,1.84.57.78-.09.84-.68.92-1.3.15-1.24-.69-2.37-.13-3.73.86-2.08,1.75-2.56,3.85-1.54.14.07.33.24.41.2,4.23-2.19,2.55.48,2.09,2.42-.18.75.26,1.64.42,2.47h0Z"/>
  <path class="cls-6" d="m31.45,182.19c0,.81.08,1.64-.72,1.86-.94.26-.61-.78-.94-1.15-.32-.36-.97-.53-1.12-.92-.22-.57-1.14-1.07-.63-1.68.58-.7,1.43-1.17,2.48-1.01,1.16.18.55.97.62,1.56.05.5.23.98.32,1.35Z"/>
  <path class="cls-6" d="m187.17,40.55c-.29,1.17-.9,1.75-1.84,1.77-1.24.03-1.46-.97-1.62-1.91-.17-.99.27-1.88,1.23-1.86,1.24.03,1.37,1.52,2.23,2Z"/>
  <path class="cls-6" d="m53.13,198.31c1.35.72,2.52,1.35,3.7,1.95.91.46.63,1.28.64,2.01,0,.34-.13.73-.54.73-.73-.01-.99-.66-1.15-1.19-.44-1.47-3.07-1.07-2.66-3.5Z"/>
  <path class="cls-6" d="m236.69,186c0,.13,0,.22-.02.3-.19.58-.73.57-.99.28-1.05-1.15-3.32.27-3.74-1.65-.16-.72,1.11-1.13,2.02-.91,1.18.29,2.17.87,2.73,1.97Z"/>
  <path class="cls-6" d="m197.31,187.63c1.14,1.32,2.17,2.58,4.04,1.34.52-.34.74.09.92.49.2.45.11.76-.39,1-1.48.71-2.98.06-4.34-.2-.81-.16-.07-1.68-.23-2.62Z"/>
  <path class="cls-6" d="m45.66,187.3c0-1.45.91-3.19-2.05-2.49,1.49-1.11,4.47-.68,4.98.42.37.8-.05,1.17-.85.87-1.1-.42-1.49.33-2.08,1.2Z"/>
  <path class="cls-6" d="m39.28,187.1c-1.04.57-2.04,1.22-3.12,1.66-.5.2-1.02-.31-.91-.89.33-1.71,2.15-1.36,3.2-2.11.75-.54.27.63.83,1.35Z"/>
  <path class="cls-6" d="m175.26,209.37c1.19-.46,1.89.75,3.06.74-.58.87-.7,1.95-2,1.7-1.57-.31-.52-1.71-1.06-2.44,0,0,0,0,0,0Z"/>
  <path class="cls-6" d="m46.84,160.77c1.21.72,1.47,1.88,1.47,3.16-.39-.16-.77-.35-1.17-.48-2.05-.68-2.1-1.57-.3-2.68Z"/>
  <path class="cls-6" d="m44.38,189.32c1.95,1.64,1.01,3.44,1.45,4.9-.83-1.35-1.65-2.7-1.45-4.9Z"/>
  <path class="cls-6" d="m110.88,208.86c0,1.8-.56,2.81-2.04,3.4q.27-1.54,2.04-3.4Z"/>
  <path class="cls-6" d="m125.45,146.57c.75.05,1.81-.07,1.77.94-.04,1.16-1.13.37-1.69.59-.58.23-.93.09-.88-.35.04-.42.51-.79.8-1.18h0Z"/>
  <path class="cls-6" d="m122.3,157.29c-.06-1.24.39-2.38.71-3.54.41,1.31,1.18,2.7-.71,3.54Z"/>
  <path class="cls-6" d="m120.84,161.38c.29-1.35.62-2.69,1.4-3.86.42,1.61.04,2.93-1.4,3.86Z"/>
  <path class="cls-6" d="m250.43,185.75c-1.28.08-2.02-.16-2.27-1.14-.04-.15.21-.54.37-.57,1.17-.23,1.22.86,1.9,1.71Z"/>
  <path class="cls-6" d="m118.06,166.78c.57-1.1.92-2.32,1.82-3.23-.18,1.32.05,2.87-1.82,3.23Z"/>
  <path class="cls-6" d="m47.83,202.37q1.85-.47,2.39,1.1c-.75-.34-1.38-.64-2.39-1.1Z"/>
  <path class="cls-6" d="m203.33,192.37c-.57-.07-.7-.37-.64-.72.09-.52.53-.59.95-.6.37,0,.71.16.48.57-.19.33-.57.55-.8.76Z"/>
  <path class="cls-6" d="m106.84,211.92c-.19.21-.41.64-.74.75-.44.15-.5-.32-.47-.65.04-.45.31-.8.75-.88.49-.09.5.28.45.78Z"/>
  <path class="cls-6" d="m45.82,158.2c.52.63,1.19,1.2.97,2.17-1.36-.26-.93-1.32-.97-2.17Z"/>
  <path class="cls-6" d="m123.58,143.52c-.07-.68-.14-1.37-.21-2.05.45.64,1.29,1.25.21,2.05Z"/>
  <path class="cls-6" d="m80.37,208.1c.14.06.27.12.41.18-.06.14-.09.35-.18.38-.1.04-.26-.1-.4-.15.06-.14.12-.27.18-.41Z"/>
  <path class="cls-6" d="m69.77,202.76c.05-.32.05-.69.47-.75.08-.01.29.19.27.28-.06.42-.43.42-.75.47,0,0,0,0,0,0Z"/>
  <path class="cls-6" d="m48.32,197.65c.05-.32.05-.69.47-.75.08-.01.29.19.28.27-.06.42-.43.42-.75.47,0,0,0,0,0,0Z"/>
  <path class="cls-6" d="m123.4,151.67c.05-.67.11-1.34.16-2.01.5.72.55,1.39-.16,2.01Z"/>
  <path class="cls-6" d="m119.89,163.45c-.12-.49.29-.71.53-1.02.66.77.05.88-.53,1.02Z"/>
  <path class="cls-3" d="m44.73,142.51c-.02.5-.04,1.01-.05,1.51-.42-.52-.45-1.02.05-1.51Z"/>
  <path class="cls-6" d="m123.24,140.28c-.41-.39-.36-.87-.29-1.36.44.38.43.86.29,1.36Z"/>
  <path class="cls-6" d="m125.45,146.57l-.64-.18c.36-.45.46.01.63.19h0Z"/>
  <path class="cls-6" d="m242.42,188.46c-.17,0-.34,0-.51,0,.09-.21.17-.43.26-.64.08.21.17.43.25.64Z"/>
  <path class="cls-3" d="m44.66,149.12c.03.33.05.67.08,1-.34-.31-.39-.64-.08-1Z"/>
  <path class="cls-6" d="m123.28,140.95c-.04-.1-.09-.2-.11-.31-.01-.05.02-.11.03-.17.39.09.55.23.09.48Z"/>
  <path class="cls-6" d="m117.75,167.5c.1-.23.21-.45.31-.68-.1.22-.21.45-.31.68Z"/>
  <path class="cls-6" d="m250.59,191.01c.04-.07.08-.13.11-.2-.04.07-.07.14-.11.2,0,0,0,0,0,0Z"/>
  <polygon class="cls-6" points="86.12 210.42 85.92 210.31 86.01 210.22 86.12 210.42"/>
  <path class="cls-6" d="m110.63,212.97c.04-.07.08-.13.12-.2-.03.07-.07.14-.1.21h-.01Z"/>
  <path class="cls-6" d="m110.64,212.98c-.04.07-.08.13-.12.2.03-.07.07-.14.1-.21,0,0,.01.01.01.01Z"/>
  <path class="cls-2" d="m80.43,127.8c-.07-6.99,5.94-12.54,13.59-12.58,6.98-.03,13.04,5.87,13.08,12.9.04,7.71-5.55,13.62-12.7,13.84-8.54.27-13.89-5.4-13.97-14.17Z"/>
  <path class="cls-2" d="m200.34,128.36c-.07-6.99,5.94-12.54,13.59-12.58,6.98-.03,13.04,5.87,13.08,12.9.04,7.71-5.55,13.62-12.7,13.84-8.54.27-13.89-5.4-13.97-14.17Z"/>
  <path class="cls-5" d="m243.22,144.13c0,2.05-.01,4.1-.02,6.15-.05.67-.11,1.34-.16,2.01-.13.69-.26,1.38-.39,2.07-.32,1.16-.78,2.3-.71,3.54l-.1.1s.05.13.05.13c-.79,1.17-1.12,2.51-1.4,3.86-.38.26-.45.64-.42,1.06-.23.31-.65.52-.53,1.02,0,0,0,.1,0,.1-.9.91-1.25,2.14-1.82,3.23,0,0,0,.04,0,.04-.1.23-.21.45-.31.68-4.04,5.4-8.56,10.26-14.6,13.52-10.3,5.55-20.82,6.67-32.07,2.88-9.44-3.17-16.01-9.46-21.31-17.44-.52-.78-.77-1.79-1.45-2.52,0-1.28-.27-2.44-1.47-3.16,0-.14,0-.28-.05-.41.22-.97-.45-1.53-.97-2.17.17-2.76-1.36-5.3-1.08-8.07-.03-.33-.05-.67-.08-1,0-1.7.01-3.41.02-5.11.02-.5.04-1.01.05-1.51,1.71-16.19,14.39-31.65,30.04-34.93,18.82-3.94,34.77,2.85,44.08,20.4,1.85,3.48,3.11,7.15,4.09,10.94-.07.49-.11.97.29,1.36,0,0-.05.19-.05.19-.01.06-.04.12-.03.17.03.11.07.21.11.31.03.17.06.35.09.52.07.68.14,1.37.21,2.05Zm-43.14-15.71c.08,8.76,5.43,14.44,13.97,14.17,7.14-.22,12.74-6.13,12.7-13.84-.04-7.04-6.09-12.94-13.08-12.9-7.65.04-13.66,5.59-13.59,12.58Z"/>
</svg>